<?xml version="1.0" encoding="utf-8"?>
<!-- Generator: Adobe Illustrator 16.2.1, SVG Export Plug-In . SVG Version: 6.00 Build 0)  -->
<!DOCTYPE svg PUBLIC "-//W3C//DTD SVG 1.1//EN" "http://www.w3.org/Graphics/SVG/1.1/DTD/svg11.dtd">
<svg version="1.1" id="Layer_1" xmlns="http://www.w3.org/2000/svg" xmlns:xlink="http://www.w3.org/1999/xlink" x="0px" y="0px"
	 width="198.465px" height="40.184px" viewBox="0 0 198.465 40.184" enable-background="new 0 0 198.465 40.184"
	 xml:space="preserve">
<g>
	<path fill="#222222" d="M0,0.449h6.173v39.285H0V0.449z"/>
	<path fill="#222222" d="M18.969,0c6.005,0,9.092,3.592,9.092,9.877v1.235h-5.836V9.485c0-2.806-1.123-3.873-3.087-3.873
		c-1.964,0-3.087,1.065-3.087,3.873c0,8.082,12.066,9.597,12.066,20.821c0,6.284-3.143,9.877-9.204,9.877s-9.204-3.593-9.204-9.877
		v-2.414h5.836v2.806c0,2.806,1.235,3.816,3.199,3.816c1.964,0,3.199-1.011,3.199-3.816c0-8.082-12.066-9.597-12.066-20.821
		C9.877,3.592,12.964,0,18.969,0z"/>
	<path fill="#222222" d="M39.961,0c6.005,0,9.092,3.592,9.092,9.877v1.235h-5.836V9.485c0-2.806-1.123-3.873-3.087-3.873
		c-1.964,0-3.086,1.065-3.086,3.873c0,8.082,12.066,9.597,12.066,20.821c0,6.284-3.143,9.877-9.204,9.877
		c-6.061,0-9.204-3.593-9.204-9.877v-2.414h5.836v2.806c0,2.806,1.235,3.816,3.199,3.816c1.964,0,3.199-1.011,3.199-3.816
		c0-8.082-12.066-9.597-12.066-20.821C30.869,3.592,33.956,0,39.961,0z"/>
	<path fill="#222222" d="M58.54,0.449v30.306c0,2.807,1.235,3.816,3.199,3.816c1.964,0,3.199-1.01,3.199-3.816V0.449h5.836v29.913
		c0,6.286-3.143,9.877-9.204,9.877c-6.062,0-9.204-3.592-9.204-9.877V0.449H58.54z"/>
	<path fill="#222222" d="M81.159,17.005h8.474v5.612h-8.474v11.505h10.663v5.612H74.985V0.449h16.836v5.612H81.159V17.005z"/>
	<path fill="#222222" d="M113.936,10.158v5.107c0,6.285-3.029,9.709-9.203,9.709h-2.918v14.76h-6.173V0.449h9.091
		C110.904,0.449,113.936,3.873,113.936,10.158z M101.814,6.061v13.301h2.918c1.963,0,3.029-0.898,3.029-3.704V9.765
		c0-2.807-1.066-3.704-3.029-3.704H101.814z"/>
	<path fill="#222222" d="M129.709,39.734c-0.337-1.01-0.562-1.627-0.562-4.827v-6.173c0-3.648-1.234-4.995-4.041-4.995h-2.131
		v15.995H116.8V0.449h9.316c6.397,0,9.147,2.974,9.147,9.036v3.086c0,4.041-1.291,6.679-4.041,7.969
		c3.086,1.291,4.096,4.267,4.096,8.362v6.061c0,1.908,0.058,3.312,0.675,4.771H129.709z M122.975,6.061v12.065h2.412
		c2.301,0,3.705-1.01,3.705-4.152v-3.873c0-2.807-0.955-4.041-3.144-4.041L122.975,6.061L122.975,6.061z"/>
	<path fill="#222222" d="M145.537,17.005h8.475v5.612h-8.475v11.505H156.2v5.612h-16.837V0.449H156.2v5.612h-10.663V17.005z"/>
	<path fill="#222222" d="M168.324,0c6.005,0,9.092,3.592,9.092,9.877v1.235h-5.837V9.485c0-2.806-1.122-3.873-3.086-3.873
		c-1.966,0-3.087,1.065-3.087,3.873c0,8.082,12.066,9.597,12.066,20.821c0,6.284-3.145,9.877-9.205,9.877
		c-6.062,0-9.203-3.593-9.203-9.877v-2.414h5.836v2.806c0,2.806,1.234,3.816,3.199,3.816s3.198-1.011,3.198-3.816
		c0-8.082-12.065-9.597-12.065-20.821C159.232,3.592,162.318,0,168.324,0z"/>
	<path fill="#222222" d="M189.316,0c6.004,0,9.092,3.592,9.092,9.877v1.235h-5.838V9.485c0-2.806-1.121-3.873-3.086-3.873
		s-3.086,1.065-3.086,3.873c0,8.082,12.065,9.597,12.065,20.821c0,6.284-3.144,9.877-9.204,9.877c-6.062,0-9.203-3.593-9.203-9.877
		v-2.414h5.836v2.806c0,2.806,1.234,3.816,3.198,3.816c1.966,0,3.199-1.011,3.199-3.816c0-8.082-12.065-9.597-12.065-20.821
		C180.225,3.592,183.312,0,189.316,0z"/>
</g>
</svg>
