<?xml version="1.0" encoding="utf-8"?>
<!-- Generator: Adobe Illustrator 17.0.0, SVG Export Plug-In . SVG Version: 6.00 Build 0)  -->
<!DOCTYPE svg PUBLIC "-//W3C//DTD SVG 1.1//EN" "http://www.w3.org/Graphics/SVG/1.1/DTD/svg11.dtd">
<svg version="1.1" id="Layer_1" xmlns="http://www.w3.org/2000/svg" xmlns:xlink="http://www.w3.org/1999/xlink" x="0px" y="0px"
	 width="32px" height="32px" viewBox="0 0 32 32" enable-background="new 0 0 32 32" xml:space="preserve">
<g>
	<path fill="#332F30" d="M16,2.552c3.592,0,6.968,1.399,9.508,3.939c2.54,2.54,3.939,5.917,3.939,9.509
		c0,3.592-1.399,6.969-3.939,9.509c-2.54,2.54-5.917,3.939-9.508,3.939c-3.592,0-6.969-1.399-9.509-3.939
		c-2.54-2.54-3.939-5.917-3.939-9.509c0-3.592,1.399-6.969,3.939-9.509C9.031,3.951,12.408,2.552,16,2.552 M16,0.848
		C7.632,0.848,0.848,7.632,0.848,16c0,8.368,6.784,15.152,15.153,15.152c8.368,0,15.152-6.784,15.152-15.152
		C31.152,7.632,24.368,0.848,16,0.848L16,0.848z"/>
	<g>
		<path fill="#332F30" d="M23.154,16.041h-2.764l0,5.429v0.336l-0.238,0.238l-3.579,3.576L16,26.193l-0.574-0.573l-3.579-3.576
			l-0.238-0.238v-0.337l0-5.429H8.846l-4.741,4.24c0.621,1.73,1.622,3.316,2.961,4.654c2.387,2.387,5.56,3.701,8.935,3.701
			c3.375,0,6.548-1.314,8.934-3.701c1.339-1.339,2.34-2.924,2.961-4.654L23.154,16.041z"/>
		<path fill="#332F30" d="M19.579,21.469l0-13.636c0.02-0.466-0.342-0.86-0.808-0.879H16h-2.77c-0.466,0.02-0.828,0.413-0.808,0.879
			L12.42,21.469L16,25.046L19.579,21.469z M14.126,8.659h3.748v1.232h-3.748V8.659z M14.125,20.763v-8.616h1.469v8.521h0.812v-8.521
			h1.469v8.616l-1.551,1.55h-0.647L14.125,20.763z"/>
	</g>
</g>
</svg>
